<svg fill="#000000" xmlns="http://www.w3.org/2000/svg" xmlns:xlink="http://www.w3.org/1999/xlink" version="1.1" x="0px" y="0px" viewBox="0 0 100 100" enable-background="new 0 0 100 100" xml:space="preserve"><path d="M52.294,9.878V6.796c0-3.059-4.588-3.059-4.588,0v3.083C22.52,10.583,4.884,28.66,4.884,51.147h4.588  c0-15.294,22.94-15.294,22.94,0h4.588c0-6.743,5.054-10.512,10.705-11.309v44.955c0,3.059-1.529,6.117-6.117,6.117  s-6.117-3.059-6.117-6.117c0-3.059-4.588-3.059-4.588,0c0,6.117,4.588,10.705,10.705,10.705s10.705-4.588,10.705-10.705V39.838  c5.651,0.797,10.705,4.566,10.705,11.309h4.588c0-15.294,22.94-15.294,22.94,0h4.588C95.116,28.66,77.48,10.583,52.294,9.878z"/></svg>